<svg id="Layer_1" data-name="Layer 1" xmlns="http://www.w3.org/2000/svg" viewBox="0 0 512.93 76.09"><defs><style>.cls-1{fill:#ff8500;}.cls-2{font-size:19.26px;fill:#2b3033;font-family:NexaLight, Nexa Light;}.cls-3{fill:#fff;}.cls-4{fill:#3d3d3d;}</style></defs><title>svG LOGO </title><path class="cls-1" d="M68.23,160.66v12H65.56V138H80.74c15.05,0,15.05,22.66,0,22.66Zm0-20.18v17.76H80.74c11.53,0,11.53-17.76,0-17.76Z" transform="translate(-65.25 -131.02)"/><path class="cls-1" d="M125.56,172.63h-3.51l-12-13.11h-9.45v13.11H98V138h15.23c7.53,0,11.33,5.4,11.38,10.79.05,5.64-3.66,10.58-11.23,10.58ZM100.63,157H112.9c6,0,8.71-3.41,8.75-8.26,0-4.06-2.72-8.26-8.46-8.26H100.63Z" transform="translate(-65.25 -131.02)"/><path class="cls-1" d="M163.46,155.37c-.05,9.1-5.84,17.86-17.47,17.86s-17.46-8.81-17.46-18c0-9.3,5.78-17.81,17.46-17.81S163.51,146,163.46,155.37Zm-32.31-.05c0,7.82,5,15.44,14.84,15.44s14.89-7.62,14.89-15.44c0-8-4.94-15.39-14.89-15.39S131.1,147.15,131.15,155.32Z" transform="translate(-65.25 -131.02)"/><path class="cls-1" d="M198.82,154.92c.2,8.81-5.44,17.71-17.56,17.71H169.53V138h11.73C193,138,198.63,146.41,198.82,154.92Zm-26.61-14.39v29.53h9c10.29,0,15-7.72,14.89-15.14-.15-7.22-4.9-14.39-14.89-14.39Z" transform="translate(-65.25 -131.02)"/><path class="cls-1" d="M231.37,138v21.52c0,18.11-26.52,18.16-26.52,0V138h2.63v21.52c0,14.9,21.27,14.85,21.27,0V138Z" transform="translate(-65.25 -131.02)"/><path class="cls-1" d="M267.24,167.84A17.86,17.86,0,0,1,254.62,173c-11.68,0-17.76-8.16-17.81-17.51s5.94-17.91,17.81-17.91a17.86,17.86,0,0,1,12.62,5.19l-1.83,1.58a15.2,15.2,0,0,0-10.79-4.4c-10.09,0-15.29,7.13-15.24,15.44.1,8.11,5.25,15.14,15.24,15.14a15.49,15.49,0,0,0,10.84-4.41Z" transform="translate(-65.25 -131.02)"/><path class="cls-1" d="M282.81,140.43H270.3v-2.38H298v2.38H285.49v32.2h-2.68Z" transform="translate(-65.25 -131.02)"/><path class="cls-1" d="M303.09,172.63V138h2.62v34.63Z" transform="translate(-65.25 -131.02)"/><path class="cls-1" d="M342.08,138l-14.25,34.73H325L310.71,138h2.87l12.81,31.67L339.21,138Z" transform="translate(-65.25 -131.02)"/><path class="cls-1" d="M346.72,172.63V138h2.62v34.63Z" transform="translate(-65.25 -131.02)"/><path class="cls-1" d="M368.39,140.43H355.87v-2.38h27.71v2.38H371.06v32.2h-2.67Z" transform="translate(-65.25 -131.02)"/><path class="cls-1" d="M401.24,158.78l-13.51-20.73V138h3.12l11.72,18.21L414.35,138h3.11v.05l-13.55,20.73v13.85h-2.67Z" transform="translate(-65.25 -131.02)"/><path class="cls-1" d="M438.58,160.66v12h-2.67V138H451.1c15,0,15,22.66,0,22.66Zm0-20.18v17.76H451.1c11.53,0,11.53-17.76,0-17.76Z" transform="translate(-65.25 -131.02)"/><path class="cls-1" d="M508.08,172.63V138h2.62v34.63Z" transform="translate(-65.25 -131.02)"/><path class="cls-1" d="M519.51,138l23.3,28.65V138h2.62v34.63h-1L521,144v28.59h-2.67V138Z" transform="translate(-65.25 -131.02)"/><path class="cls-1" d="M563,140.43H550.47v-2.38h27.71v2.38H565.66v32.2H563Z" transform="translate(-65.25 -131.02)"/><text class="cls-2" transform="translate(97.74 69.89)">LEARNING SOLUTIONS</text><path class="cls-1" d="M483.25,193.53c29.21.1,58.53.1,87.11,0" transform="translate(-65.25 -131.02)"/><path class="cls-1" d="M527,194.11c-14.55,0-29.18,0-43.79-.08v-1c29.2.11,58.51.11,87.1,0v1C556.07,194.09,541.59,194.11,527,194.11Z" transform="translate(-65.25 -131.02)"/><path class="cls-1" d="M65.25,193.53c29.21.1,58.53.1,87.11,0" transform="translate(-65.25 -131.02)"/><path class="cls-1" d="M109,194.11c-14.55,0-29.18,0-43.79-.08v-1c29.2.11,58.51.11,87.1,0v1C138.07,194.09,123.59,194.11,109,194.11Z" transform="translate(-65.25 -131.02)"/><rect class="cls-3" x="397.25" width="44" height="46.96" rx="7.17" ry="7.17"/><path class="cls-4" d="M497,147l-.87.84A14.33,14.33,0,0,0,473,146.75l-.82-.86A15.5,15.5,0,0,1,497,147Z" transform="translate(-65.25 -131.02)"/><path class="cls-4" d="M499.24,144.77l-.86.83a17.39,17.39,0,0,0-27.53-1.11l-.82-.86a18.56,18.56,0,0,1,29.21,1.14Z" transform="translate(-65.25 -131.02)"/><path class="cls-4" d="M497,147l-.87.84A14.33,14.33,0,0,0,473,146.75l-.82-.86A15.5,15.5,0,0,1,497,147Z" transform="translate(-65.25 -131.02)"/><path class="cls-4" d="M501.12,142.94l-.85.83A20,20,0,0,0,469,142.59l-.82-.86a21.12,21.12,0,0,1,32.9,1.21Z" transform="translate(-65.25 -131.02)"/><line class="cls-4" x1="403.79" y1="11.58" x2="402.97" y2="10.71"/><line class="cls-4" x1="405.6" y1="13.47" x2="404.78" y2="12.61"/><line class="cls-4" x1="407.75" y1="15.73" x2="406.93" y2="14.87"/><path class="cls-4" d="M472,163.77l.86-.84A14.33,14.33,0,0,0,496,164l.82.87A15.52,15.52,0,0,1,472,163.77Z" transform="translate(-65.25 -131.02)"/><path class="cls-4" d="M469.78,166l.86-.83a17.38,17.38,0,0,0,27.53,1.12l.81.86a18.56,18.56,0,0,1-29.2-1.15Z" transform="translate(-65.25 -131.02)"/><path class="cls-4" d="M472,163.77l.86-.84A14.33,14.33,0,0,0,496,164l.82.87A15.52,15.52,0,0,1,472,163.77Z" transform="translate(-65.25 -131.02)"/><path class="cls-4" d="M467.9,167.78l.85-.83a19.83,19.83,0,0,0,16.08,8.15,20,20,0,0,0,15.15-7l.82.87a21.13,21.13,0,0,1-32.9-1.22Z" transform="translate(-65.25 -131.02)"/><line class="cls-4" x1="434.73" y1="37.12" x2="435.55" y2="37.98"/><line class="cls-4" x1="432.92" y1="35.22" x2="433.73" y2="36.08"/><line class="cls-4" x1="430.76" y1="32.96" x2="431.59" y2="33.82"/><ellipse class="cls-1" cx="419.42" cy="24.25" rx="2.02" ry="2.04"/><path class="cls-1" d="M484.67,167.56a12.29,12.29,0,1,1,12.15-12.29A12.23,12.23,0,0,1,484.67,167.56Zm0-23.16a10.87,10.87,0,1,0,10.75,10.87A10.82,10.82,0,0,0,484.67,144.4Z" transform="translate(-65.25 -131.02)"/></svg>